# xmcd
#
# Track frame offsets:
#	150
#	14556
#	31988
#	46672
#	61981
#	84772
#	95623
#	111526
#	125418
#	146485
#	166419
#	178721
#	196144
#	208851
#	219655
#	234009
#	244181
#	258516
#	274015
#	289756
#
# Disc length: 4082 seconds
#
# Revision: 1
# Processed by: cddbd v1.5.1PL0 Copyright (c) Steve Scherf et al.
# Submitted via: audiograbber 1.83.01
#
DISCID=1f0ff014
DTITLE=Silverwings - Oldies (Antje and Charly Strauss - Patrick Kuhn)
DYEAR=2002
DGENRE=Pop
TTITLE0=Let's Twist Again
TTITLE1=Sweet Home Alabama
TTITLE2=Everybody's Talking
TTITLE3=Last Time
TTITLE4=The Long Road
TTITLE5=Dynamite
TTITLE6=California Blue
TTITLE7=No Me Hables
TTITLE8=I Have A Dream
TTITLE9=Born To Be Alive
TTITLE10=Sea Cruise
TTITLE11=Ginny Come Lately
TTITLE12=Marie, Marie
TTITLE13=Needles And Pins
TTITLE14=Will You Love Me Tomorrow
TTITLE15=Blue Suede Shoes
TTITLE16=Atlantis
TTITLE17=Living Next Door To Alice
TTITLE18=What'd I Say
TTITLE19=Das war Hollywood von gestern
EXTD=
EXTT0=
EXTT1=
EXTT2=
EXTT3=
EXTT4=
EXTT5=
EXTT6=
EXTT7=
EXTT8=
EXTT9=
EXTT10=
EXTT11=
EXTT12=
EXTT13=
EXTT14=
EXTT15=
EXTT16=
EXTT17=
EXTT18=
EXTT19=
PLAYORDER=
